<?xml version="1.0" standalone="no"?>
<!DOCTYPE svg PUBLIC "-//W3C//DTD SVG 20010904//EN"
 "http://www.w3.org/TR/2001/REC-SVG-20010904/DTD/svg10.dtd">
<svg version="1.0" xmlns="http://www.w3.org/2000/svg"
 width="150.000000pt" height="150.000000pt" viewBox="0 0 150.000000 150.000000"
 preserveAspectRatio="xMidYMid meet">
<metadata>
Created by potrace 1.11, written by Peter Selinger 2001-2013
</metadata>
<g transform="translate(0.000000,150.000000) scale(0.100000,-0.100000)"
fill="#000000" stroke="none">
<path d="M0 750 l0 -750 750 0 750 0 0 750 0 750 -750 0 -750 0 0 -750z m680
460 c0 -19 -7 -20 -125 -20 -118 0 -125 1 -125 20 0 19 7 20 125 20 118 0 125
-1 125 -20z m415 -2 c41 -15 90 -68 105 -113 20 -61 9 -165 -23 -213 -45 -69
-69 -76 -252 -80 l-160 -4 3 208 c2 123 -1 210 -7 213 -17 11 304 0 334 -11z
m-497 -125 c-3 -16 -20 -18 -151 -21 -142 -2 -147 -2 -147 18 0 19 6 20 151
20 138 0 150 -1 147 -17z m0 -130 c3 -23 3 -23 -147 -23 -140 0 -151 1 -151
18 0 10 3 22 7 26 4 4 71 6 148 4 136 -3 140 -4 143 -25z m82 -128 l0 -25
-125 0 -125 0 0 25 0 25 125 0 125 0 0 -25z m-370 -220 c39 -36 37 -133 -4
-160 -12 -8 -52 -17 -89 -19 l-67 -6 0 107 0 106 70 -5 c48 -4 77 -11 90 -23z
m105 -78 c0 -96 -1 -103 -20 -105 -19 -1 -20 5 -20 103 0 98 1 105 20 105 19
0 20 -7 20 -103z m100 86 c3 -10 26 -40 50 -68 l45 -49 0 67 c0 60 2 67 20 67
19 0 20 -7 20 -105 0 -96 -2 -105 -19 -105 -10 0 -30 17 -45 38 -14 21 -40 51
-56 67 l-30 29 0 -67 c0 -60 -2 -66 -20 -64 -19 1 -20 8 -20 104 0 102 0 103
24 103 15 0 27 -7 31 -17z m324 6 c32 -11 36 -16 23 -36 -5 -8 -13 -9 -22 -3
-18 11 -71 13 -86 2 -26 -17 -36 -53 -24 -83 13 -31 40 -43 86 -37 39 4 40 33
2 33 -20 -1 -28 4 -28 17 0 15 8 18 44 18 l44 0 4 -40 c3 -39 2 -40 -39 -56
-86 -33 -156 8 -156 91 0 82 66 124 152 94z m278 -1 c36 -13 37 -16 23 -38 -7
-12 -12 -12 -22 -2 -15 15 -84 16 -93 1 -10 -15 -1 -20 51 -30 58 -11 74 -24
74 -60 0 -55 -52 -79 -125 -59 -50 14 -49 13 -35 41 10 18 12 18 27 4 21 -21
87 -16 91 6 2 13 -8 18 -42 23 -54 8 -76 27 -76 66 0 52 56 73 127 48z m105
-58 c-3 -46 0 -75 8 -85 14 -17 76 -20 86 -4 3 6 6 44 6 85 0 66 2 74 19 74
17 0 19 -8 19 -83 0 -108 -9 -122 -84 -122 -79 0 -90 14 -95 120 -3 84 -3 85
21 85 23 0 24 -2 20 -70z m-828 -231 c-16 -6 -16 -8 -2 -8 13 -1 17 -9 15 -30
-1 -18 -7 -27 -14 -24 -7 3 -13 0 -13 -5 0 -6 10 -13 23 -15 12 -3 -6 -5 -40
-4 -51 0 -61 3 -52 13 6 7 8 23 4 35 -5 14 -4 19 4 15 6 -4 11 -18 11 -32 0
-17 5 -24 20 -24 11 0 20 4 20 10 0 5 -8 7 -17 3 -16 -6 -16 -4 1 15 11 12 16
25 12 29 -4 4 -11 1 -16 -7 -6 -9 -10 -10 -10 -3 0 7 8 17 18 22 16 10 15 10
-3 11 -20 1 -20 1 0 9 11 4 29 6 39 3 20 -5 20 -5 0 -13z m168 -72 c-4 -17 -5
-17 -18 0 -7 10 -8 20 -3 21 5 2 10 20 10 40 l2 37 6 -40 c4 -22 5 -48 3 -58z
m104 73 c13 0 24 6 25 13 0 10 2 10 6 0 2 -7 12 -13 21 -14 14 0 13 -2 -3 -9
-18 -7 -18 -8 -3 -15 14 -6 16 -11 7 -27 -8 -15 -8 -22 0 -27 6 -4 -5 -7 -24
-7 -19 0 -30 3 -23 7 14 9 2 42 -15 37 -6 -3 -13 -14 -15 -26 -6 -41 -17 -22
-15 25 2 62 3 71 10 56 2 -7 16 -13 29 -13z m192 2 c-45 -4 -51 -22 -8 -22 28
0 30 -3 30 -35 0 -27 -4 -35 -17 -35 -15 0 -16 2 -3 10 11 7 7 10 -17 10 -17
0 -34 -6 -36 -12 -3 -7 -6 0 -6 15 -1 16 -5 26 -11 22 -14 -9 -12 9 2 23 10
10 10 15 -1 22 -19 11 20 17 69 10 l35 -5 -37 -3z m136 -3 c-3 -5 4 -9 16 -9
12 0 18 5 15 10 -3 6 -1 10 5 10 7 0 10 -15 9 -38 -2 -21 0 -43 5 -50 4 -7 2
-12 -3 -12 -6 0 -16 9 -23 20 -7 11 -17 20 -22 20 -4 0 -6 -9 -3 -20 6 -21 -9
-28 -16 -7 -3 9 -7 9 -20 -2 -15 -12 -17 -9 -17 36 0 27 2 52 5 55 9 9 55 -4
49 -13z m-754 2 c-25 -7 -25 -7 -2 -13 21 -6 33 -48 13 -48 -5 0 -8 8 -7 17 0
11 -7 19 -21 21 -16 2 -23 -3 -26 -20 -4 -21 -4 -21 -6 4 0 14 5 29 12 32 6 3
3 5 -8 3 -16 -2 -21 -11 -23 -45 -4 -59 -17 -53 -17 8 l0 50 55 -1 c40 -1 48
-3 30 -8z m90 -1 c0 -5 -2 -10 -4 -10 -3 0 -8 5 -11 10 -3 6 -1 10 4 10 6 0
11 -4 11 -10z m166 2 c-3 -5 2 -21 10 -37 8 -15 12 -30 9 -33 -3 -3 -5 0 -5 6
0 22 -20 12 -21 -10 -1 -18 -2 -19 -6 -5 -2 9 -9 14 -15 11 -7 -5 -8 -2 -3 6
12 19 12 54 0 62 -5 4 0 8 13 8 13 0 21 -4 18 -8z m632 -14 c-8 -12 -21 -24
-28 -26 -8 -3 -6 5 6 21 23 32 42 36 22 5z m77 -26 c-7 -7 -45 29 -45 41 0 6
11 0 25 -13 14 -13 23 -26 20 -28z m155 -2 c0 -46 -2 -50 -22 -49 -17 1 -19 2
-5 6 12 3 17 15 17 43 l0 39 -47 4 -48 3 53 2 52 2 0 -50z m-37 23 c-13 -2
-35 -2 -50 0 -16 2 -5 4 22 4 28 0 40 -2 28 -4z m-1078 -58 c10 -8 5 -11 -21
-11 -30 0 -32 2 -19 16 8 9 16 23 16 31 1 8 3 5 6 -6 3 -11 11 -25 18 -30z
m895 24 c-13 -24 -7 -34 15 -25 10 3 13 11 9 18 -5 9 -3 9 9 -1 27 -21 21 -28
-28 -29 l-44 -2 17 30 c19 33 39 42 22 9z m186 10 c8 -14 -4 -25 -38 -33 -25
-6 -28 -4 -28 19 0 21 5 25 29 25 17 0 33 -5 37 -11z"/>
<path d="M952 1162 l-103 -3 3 -147 3 -147 86 -3 c51 -2 98 2 115 9 16 7 34
13 39 13 6 1 10 6 11 11 0 6 6 24 13 40 7 17 11 56 9 91 -3 54 -8 67 -39 100
l-34 39 -103 -3z"/>
<path d="M190 525 l0 -65 38 0 c47 0 72 24 72 67 0 39 -28 63 -73 63 l-37 0 0
-65z"/>
<path d="M380 300 c0 -5 5 -10 10 -10 6 0 10 5 10 10 0 6 -4 10 -10 10 -5 0
-10 -4 -10 -10z"/>
<path d="M645 310 c-4 -6 5 -10 19 -10 14 0 26 5 26 10 0 6 -9 10 -19 10 -11
0 -23 -4 -26 -10z"/>
<path d="M685 291 c-6 -11 9 -23 19 -14 9 9 7 23 -3 23 -6 0 -12 -4 -16 -9z"/>
<path d="M823 293 c9 -2 25 -2 35 0 9 3 1 5 -18 5 -19 0 -27 -2 -17 -5z"/>
<path d="M823 273 c9 -2 25 -2 35 0 9 3 1 5 -18 5 -19 0 -27 -2 -17 -5z"/>
<path d="M972 310 c0 -14 2 -19 5 -12 2 6 2 18 0 25 -3 6 -5 1 -5 -13z"/>
<path d="M998 303 c6 -2 18 -2 25 0 6 3 1 5 -13 5 -14 0 -19 -2 -12 -5z"/>
<path d="M950 285 c0 -8 4 -15 10 -15 5 0 7 7 4 15 -4 8 -8 15 -10 15 -2 0 -4
-7 -4 -15z"/>
<path d="M1275 280 c-3 -5 3 -10 14 -10 12 0 21 5 21 10 0 6 -6 10 -14 10 -8
0 -18 -4 -21 -10z"/>
</g>
</svg>
